<svg xmlns="http://www.w3.org/2000/svg" width="16" height="16" viewBox="0 0 16 16"><defs><style>.a{fill:#36547e;}</style></defs><path class="a" d="M82.84-867.5a11.52,11.52,0,0,1,2.5-1.35,7.442,7.442,0,0,1,2.66-.47,7.523,7.523,0,0,1,2.67.47,11.428,11.428,0,0,1,2.51,1.35,7.021,7.021,0,0,0,1.25-2.18A7.228,7.228,0,0,0,94.8-872a6.584,6.584,0,0,0-1.95-4.85A6.584,6.584,0,0,0,88-878.8a6.584,6.584,0,0,0-4.85,1.95A6.584,6.584,0,0,0,81.2-872a7.055,7.055,0,0,0,.38,2.32A7.2,7.2,0,0,0,82.84-867.5ZM88-871.4a2.638,2.638,0,0,1-1.946-.794,2.657,2.657,0,0,1-.79-1.95,2.638,2.638,0,0,1,.794-1.946,2.657,2.657,0,0,1,1.95-.79,2.639,2.639,0,0,1,1.946.794,2.657,2.657,0,0,1,.79,1.95,2.638,2.638,0,0,1-.794,1.946A2.657,2.657,0,0,1,88-871.4Zm.013,7.4a7.763,7.763,0,0,1-3.109-.63,8.114,8.114,0,0,1-2.55-1.72,8.13,8.13,0,0,1-1.72-2.545,7.744,7.744,0,0,1-.63-3.11,7.706,7.706,0,0,1,.63-3.1,8.146,8.146,0,0,1,1.72-2.54,8.13,8.13,0,0,1,2.545-1.72,7.744,7.744,0,0,1,3.11-.63,7.706,7.706,0,0,1,3.1.63,8.147,8.147,0,0,1,2.54,1.72,8.144,8.144,0,0,1,1.72,2.541,7.7,7.7,0,0,1,.63,3.1,7.763,7.763,0,0,1-.63,3.109,8.114,8.114,0,0,1-1.72,2.55,8.144,8.144,0,0,1-2.541,1.72A7.7,7.7,0,0,1,88.009-864ZM88-865.2a7.333,7.333,0,0,0,2.15-.32,6.388,6.388,0,0,0,2.07-1.12,8.706,8.706,0,0,0-2.08-1.1,6.3,6.3,0,0,0-2.14-.38,6.3,6.3,0,0,0-2.14.38,8.706,8.706,0,0,0-2.08,1.1,6.388,6.388,0,0,0,2.07,1.12A7.333,7.333,0,0,0,88-865.2Zm0-7.4a1.5,1.5,0,0,0,1.11-.43,1.5,1.5,0,0,0,.43-1.11,1.5,1.5,0,0,0-.43-1.11,1.5,1.5,0,0,0-1.11-.43,1.5,1.5,0,0,0-1.11.43,1.5,1.5,0,0,0-.43,1.11,1.5,1.5,0,0,0,.43,1.11A1.5,1.5,0,0,0,88-872.6ZM88-874.14ZM88-866.66Z" transform="translate(-80 880)"/></svg>