<svg xmlns="http://www.w3.org/2000/svg" width="18.701" height="21.039" viewBox="0 0 18.701 21.039"><defs><style>.a{fill:#36537e;}</style></defs><path class="a" d="M162.951-818.961a1.688,1.688,0,0,1-1.238-.515,1.688,1.688,0,0,1-.515-1.238V-837.37H160v-1.753h5.494V-840h7.714v.876H178.7v1.753h-1.2v16.656a1.682,1.682,0,0,1-.526,1.227,1.682,1.682,0,0,1-1.227.526Zm12.8-18.409h-12.8v16.656h12.8Zm-9.7,14.143H167.8v-11.659h-1.753Zm4.851,0h1.753v-11.659H170.9Zm-7.948-14.143v0Z" transform="translate(-160 840)"/></svg>