<svg xmlns="http://www.w3.org/2000/svg" width="15.9" height="15.9" viewBox="0 0 15.9 15.9"><defs><style>.a{fill:#36547e;}</style></defs><path class="a" d="M9.657,8.362v2.523A.112.112,0,0,1,9.544,11h-.4a.117.117,0,0,1-.092-.046L7.89,9.391v1.5A.112.112,0,0,1,7.776,11h-.4a.112.112,0,0,1-.114-.114V8.365a.112.112,0,0,1,.114-.114h.4a.107.107,0,0,1,.092.05L9.022,9.863v-1.5a.112.112,0,0,1,.114-.114h.4a.112.112,0,0,1,.117.11Zm-2.91-.114h-.4a.112.112,0,0,0-.114.114v2.523A.112.112,0,0,0,6.342,11h.4a.112.112,0,0,0,.114-.114V8.362A.114.114,0,0,0,6.747,8.248Zm-.976,2.115h-1.1v-2a.112.112,0,0,0-.114-.114h-.4a.112.112,0,0,0-.114.114v2.523a.1.1,0,0,0,.032.078A.12.12,0,0,0,4.145,11H5.767a.112.112,0,0,0,.114-.114v-.4a.114.114,0,0,0-.11-.114Zm6.016-2.115H10.165a.114.114,0,0,0-.114.114v2.523a.114.114,0,0,0,.114.114h1.622a.112.112,0,0,0,.114-.114v-.4a.112.112,0,0,0-.114-.114h-1.1V9.941h1.1a.112.112,0,0,0,.114-.114V9.419a.112.112,0,0,0-.114-.114h-1.1V8.88h1.1a.112.112,0,0,0,.114-.114v-.4a.119.119,0,0,0-.114-.114ZM15.9,5.15V15.275A2.891,2.891,0,0,1,13,18.15H2.875A2.893,2.893,0,0,1,0,15.25V5.125A2.893,2.893,0,0,1,2.9,2.25H13.025A2.891,2.891,0,0,1,15.9,5.15ZM13.714,9.5c0-2.591-2.6-4.7-5.789-4.7S2.137,6.91,2.137,9.5c0,2.321,2.059,4.266,4.841,4.635.678.146.6.394.447,1.306-.025.146-.117.571.5.312a18.707,18.707,0,0,0,4.55-3.361A4.193,4.193,0,0,0,13.714,9.5Z" transform="translate(0 -2.25)"/></svg>