<svg xmlns="http://www.w3.org/2000/svg" width="24" height="24" viewBox="0 0 24 24"><defs><style>.a{fill:#1c1d1d;}</style></defs><path class="a" d="M14.577,11.475v3.809a.169.169,0,0,1-.171.171h-.611a.177.177,0,0,1-.139-.07l-1.746-2.357v2.261a.169.169,0,0,1-.171.171h-.611a.169.169,0,0,1-.171-.171V11.48a.169.169,0,0,1,.171-.171h.605a.162.162,0,0,1,.139.075l1.746,2.357V11.48a.169.169,0,0,1,.171-.171H14.4A.169.169,0,0,1,14.577,11.475ZM10.184,11.3H9.573a.169.169,0,0,0-.171.171v3.809a.169.169,0,0,0,.171.171h.611a.169.169,0,0,0,.171-.171V11.475A.173.173,0,0,0,10.184,11.3ZM8.711,14.5H7.045V11.475a.169.169,0,0,0-.171-.171H6.262a.169.169,0,0,0-.171.171v3.809a.158.158,0,0,0,.048.118.181.181,0,0,0,.118.048H8.705a.169.169,0,0,0,.171-.171v-.611A.172.172,0,0,0,8.711,14.5Zm9.08-3.193H15.343a.173.173,0,0,0-.171.171v3.809a.173.173,0,0,0,.171.171h2.448a.169.169,0,0,0,.171-.171v-.611a.169.169,0,0,0-.171-.171H16.125v-.643h1.666a.169.169,0,0,0,.171-.171v-.616a.169.169,0,0,0-.171-.171H16.125v-.643h1.666a.169.169,0,0,0,.171-.171v-.611a.18.18,0,0,0-.171-.171ZM24,6.627V21.911a4.363,4.363,0,0,1-4.377,4.339H4.339A4.367,4.367,0,0,1,0,21.873V6.589A4.367,4.367,0,0,1,4.377,2.25H19.661A4.363,4.363,0,0,1,24,6.627Zm-3.3,6.568c0-3.911-3.921-7.093-8.737-7.093S3.225,9.284,3.225,13.195c0,3.5,3.107,6.439,7.307,7,1.023.22.905.595.675,1.971-.037.22-.177.862.755.471a28.237,28.237,0,0,0,6.868-5.073A6.329,6.329,0,0,0,20.7,13.195Z" transform="translate(0 -2.25)"/></svg>