<svg xmlns="http://www.w3.org/2000/svg" width="10.125" height="15" viewBox="0 0 10.125 15"><defs><style>.a{fill:#36547e;}</style></defs><path class="a" d="M215.063-869.088a14.755,14.755,0,0,0,2.943-3.027,4.887,4.887,0,0,0,.994-2.711,4,4,0,0,0-.4-1.875,4,4,0,0,0-.994-1.254,3.817,3.817,0,0,0-1.28-.7,4.213,4.213,0,0,0-1.26-.218,4.214,4.214,0,0,0-1.26.218,3.817,3.817,0,0,0-1.28.7,4,4,0,0,0-.994,1.254,4,4,0,0,0-.4,1.875,4.887,4.887,0,0,0,.994,2.711A14.755,14.755,0,0,0,215.063-869.088Zm0,1.425a17.54,17.54,0,0,1-3.816-3.7A6.008,6.008,0,0,1,210-874.82a5.172,5.172,0,0,1,.459-2.245,5.079,5.079,0,0,1,1.191-1.622,4.978,4.978,0,0,1,1.631-.984,5.174,5.174,0,0,1,1.781-.328,5.177,5.177,0,0,1,1.782.328,4.977,4.977,0,0,1,1.631.984,5.078,5.078,0,0,1,1.191,1.622,5.183,5.183,0,0,1,.459,2.249,6,6,0,0,1-1.247,3.46A17.592,17.592,0,0,1,215.063-867.662Zm0-5.963a1.26,1.26,0,0,0,.926-.386,1.268,1.268,0,0,0,.384-.928,1.26,1.26,0,0,0-.386-.927,1.268,1.268,0,0,0-.928-.384,1.26,1.26,0,0,0-.926.386,1.268,1.268,0,0,0-.384.928,1.26,1.26,0,0,0,.386.926A1.268,1.268,0,0,0,215.064-873.625ZM210-865v-1.125h10.125V-865ZM215.063-874.825Z" transform="translate(-210 880)"/></svg>