<svg xmlns="http://www.w3.org/2000/svg" width="16" height="15.273" viewBox="0 0 16 15.273"><defs><style>.a{fill:#36547e;}</style></defs><path class="a" d="M40.891-868.527,40-869.182l3.418-5.454,2.174,2.545,2.9-4.691,1.982,2.945a3.454,3.454,0,0,0-.564.118q-.273.082-.545.191l-.818-1.255-2.774,4.527-2.208-2.564Zm14.327,3.8-2.436-2.436a3.036,3.036,0,0,1-.827.418,2.939,2.939,0,0,1-.918.145,2.98,2.98,0,0,1-2.189-.9,2.984,2.984,0,0,1-.9-2.191,2.976,2.976,0,0,1,.9-2.189,2.986,2.986,0,0,1,2.191-.9,2.977,2.977,0,0,1,2.189.9,2.983,2.983,0,0,1,.9,2.189,2.782,2.782,0,0,1-.155.918,4.228,4.228,0,0,1-.409.854L56-865.509Zm-4.184-2.964a1.937,1.937,0,0,0,1.421-.579,1.925,1.925,0,0,0,.582-1.418,1.937,1.937,0,0,0-.579-1.421,1.924,1.924,0,0,0-1.418-.582,1.937,1.937,0,0,0-1.421.579,1.924,1.924,0,0,0-.582,1.418,1.937,1.937,0,0,0,.579,1.421A1.924,1.924,0,0,0,51.034-867.691Zm1.348-5.964a2.27,2.27,0,0,0-.564-.146l-.6-.073L55.109-880l.891.655Z" transform="translate(-40 880)"/></svg>