<svg xmlns="http://www.w3.org/2000/svg" width="16" height="13.764" viewBox="0 0 16 13.764"><defs><style>.a{fill:#36547e;}</style></defs><path class="a" d="M53.836-866.6l-.909-.909a7.51,7.51,0,0,0,1.336-1.9,5.532,5.532,0,0,0,.464-2.391,5.532,5.532,0,0,0-.464-2.391,7.512,7.512,0,0,0-1.336-1.9l.909-.909a8.291,8.291,0,0,1,1.591,2.3A6.879,6.879,0,0,1,56-871.8a6.879,6.879,0,0,1-.573,2.9A8.291,8.291,0,0,1,53.836-866.6Zm-2.527-2.582-.909-.909a2.941,2.941,0,0,0,.509-.773,2.284,2.284,0,0,0,.182-.936,2.285,2.285,0,0,0-.182-.936,2.94,2.94,0,0,0-.509-.773l.909-.909a4.093,4.093,0,0,1,.764,1.191,3.6,3.6,0,0,1,.291,1.427,3.6,3.6,0,0,1-.291,1.427A4.093,4.093,0,0,1,51.309-869.182Zm-5.491.109a2.658,2.658,0,0,1-1.964-.764,2.658,2.658,0,0,1-.764-1.964,2.658,2.658,0,0,1,.764-1.964,2.658,2.658,0,0,1,1.964-.764,2.658,2.658,0,0,1,1.964.764,2.658,2.658,0,0,1,.764,1.964,2.658,2.658,0,0,1-.764,1.964A2.658,2.658,0,0,1,45.818-869.073ZM40-863.236v-1.709a1.959,1.959,0,0,1,.345-1.173,2.4,2.4,0,0,1,.891-.755,10.13,10.13,0,0,1,2.191-.782,10.077,10.077,0,0,1,2.391-.309,9.966,9.966,0,0,1,2.382.309,10.161,10.161,0,0,1,2.182.782,2.473,2.473,0,0,1,.9.755,1.924,1.924,0,0,1,.355,1.173v1.709Zm1.091-1.091h9.455v-.618a.987.987,0,0,0-.155-.536,1.217,1.217,0,0,0-.445-.409,7.185,7.185,0,0,0-1.982-.736,9.917,9.917,0,0,0-2.145-.245,9.382,9.382,0,0,0-2.155.264,8.538,8.538,0,0,0-1.991.718,1.033,1.033,0,0,0-.418.391,1.035,1.035,0,0,0-.164.555Zm4.727-5.836a1.589,1.589,0,0,0,1.173-.464,1.589,1.589,0,0,0,.464-1.173,1.589,1.589,0,0,0-.464-1.173,1.589,1.589,0,0,0-1.173-.464,1.589,1.589,0,0,0-1.173.464,1.589,1.589,0,0,0-.464,1.173,1.589,1.589,0,0,0,.464,1.173A1.589,1.589,0,0,0,45.818-870.164ZM45.818-871.8ZM45.818-864.327Z" transform="translate(-40 877)"/></svg>