<svg xmlns="http://www.w3.org/2000/svg" width="16" height="16" viewBox="0 0 16 16"><defs><style>.a{fill:#36547e;}</style></defs><path class="a" d="M86.16-864l-.4-2.52a5.349,5.349,0,0,1-.8-.38,5.493,5.493,0,0,1-.74-.5l-2.36,1.08L80-869.6l2.16-1.58a2.378,2.378,0,0,1-.05-.41q-.01-.23-.01-.41t.01-.41a2.376,2.376,0,0,1,.05-.41L80-874.4l1.86-3.28,2.36,1.08a5.493,5.493,0,0,1,.74-.5,4.138,4.138,0,0,1,.8-.36l.4-2.54h3.68l.4,2.52a6.476,6.476,0,0,1,.81.37,3.443,3.443,0,0,1,.73.51l2.36-1.08L96-874.4l-2.16,1.54a2.817,2.817,0,0,1,.05.43q.01.23.01.43t-.01.42a2.786,2.786,0,0,1-.05.42L96-869.6l-1.86,3.28-2.36-1.08a6.629,6.629,0,0,1-.73.51,3.48,3.48,0,0,1-.81.37l-.4,2.52ZM88-869.4a2.506,2.506,0,0,0,1.84-.76A2.506,2.506,0,0,0,90.6-872a2.506,2.506,0,0,0-.76-1.84A2.506,2.506,0,0,0,88-874.6a2.506,2.506,0,0,0-1.84.76A2.506,2.506,0,0,0,85.4-872a2.506,2.506,0,0,0,.76,1.84A2.506,2.506,0,0,0,88-869.4Zm0-1.2a1.349,1.349,0,0,1-.99-.41,1.349,1.349,0,0,1-.41-.99,1.349,1.349,0,0,1,.41-.99,1.349,1.349,0,0,1,.99-.41,1.349,1.349,0,0,1,.99.41,1.349,1.349,0,0,1,.41.99,1.349,1.349,0,0,1-.41.99A1.349,1.349,0,0,1,88-870.6ZM88-872Zm-.88,6.8h1.76l.28-2.24a4.715,4.715,0,0,0,1.25-.5,5.124,5.124,0,0,0,1.07-.82l2.12.92.8-1.44-1.88-1.38q.08-.34.13-.67a4.467,4.467,0,0,0,.05-.67,5.567,5.567,0,0,0-.04-.67,4.138,4.138,0,0,0-.14-.67l1.88-1.38-.8-1.44-2.12.92a4.458,4.458,0,0,0-1.04-.87,3.373,3.373,0,0,0-1.28-.45l-.28-2.24H87.12l-.28,2.24a4.238,4.238,0,0,0-1.27.48,4.412,4.412,0,0,0-1.05.84l-2.12-.92-.8,1.44,1.88,1.38q-.08.34-.13.67a4.468,4.468,0,0,0-.05.67,4.468,4.468,0,0,0,.05.67q.05.33.13.67l-1.88,1.38.8,1.44,2.12-.92a5.125,5.125,0,0,0,1.07.82,4.715,4.715,0,0,0,1.25.5Z" transform="translate(-80 880)"/></svg>