<svg xmlns="http://www.w3.org/2000/svg" width="16" height="14.329" viewBox="0 0 16 14.329"><path d="M93.116-833.612v6.747a1.145,1.145,0,0,1-.358.836,1.145,1.145,0,0,1-.836.358H79.961a1.145,1.145,0,0,1-.836-.358,1.146,1.146,0,0,1-.358-.836v-6.747a2.254,2.254,0,0,1-.736-1.174,2.491,2.491,0,0,1,.04-1.393l.856-2.687a1.564,1.564,0,0,1,.557-.836,1.485,1.485,0,0,1,.915-.3H91.4a1.6,1.6,0,0,1,.975.308,1.571,1.571,0,0,1,.577.826l.876,2.687a2.431,2.431,0,0,1,.03,1.393A2.314,2.314,0,0,1,93.116-833.612Zm-5.373-.617a1.362,1.362,0,0,0,.975-.378,1,1,0,0,0,.318-.915l-.5-3.284h-1.99v3.284a1.335,1.335,0,0,0,.338.906A1.086,1.086,0,0,0,87.743-834.229Zm-3.722,0a1.3,1.3,0,0,0,.945-.378,1.231,1.231,0,0,0,.388-.915v-3.284h-1.99l-.5,3.284a1.04,1.04,0,0,0,.279.906A1.146,1.146,0,0,0,84.021-834.229Zm-3.622,0a1.163,1.163,0,0,0,.826-.328,1.3,1.3,0,0,0,.408-.806l.517-3.443H80.16l-.915,2.906a1.253,1.253,0,0,0,.159,1.144A1.138,1.138,0,0,0,80.4-834.229Zm11.085,0a1.169,1.169,0,0,0,1.005-.517,1.249,1.249,0,0,0,.169-1.154l-.915-2.906h-1.99l.517,3.443a1.3,1.3,0,0,0,.408.806A1.14,1.14,0,0,0,91.484-834.229Zm-11.523,7.364H91.922v-6.189q.02.02-.129.02h-.308a2.209,2.209,0,0,1-.945-.209,3.165,3.165,0,0,1-.886-.647,2.247,2.247,0,0,1-.8.627,2.407,2.407,0,0,1-1.055.229,2.786,2.786,0,0,1-1.025-.169,2.462,2.462,0,0,1-.826-.567,1.919,1.919,0,0,1-.756.547,2.688,2.688,0,0,1-1.035.189,2.6,2.6,0,0,1-1.095-.219,2.237,2.237,0,0,1-.816-.637,4.177,4.177,0,0,1-.935.637,2.105,2.105,0,0,1-.915.219H80.13a.452.452,0,0,1-.169-.02Zm11.961,0h0Z" transform="translate(-77.95 840)"/></svg>